<svg width="28" height="23" viewBox="0 0 28 23" fill="none" xmlns="http://www.w3.org/2000/svg">
<path d="M27.0214 13.5334C26.6805 9.53483 25.2999 5.9172 23.1977 2.59354C23.0983 2.43755 22.9534 2.28457 22.7972 2.20958C21.1893 1.43566 19.5133 0.895713 17.7776 0.53875C17.4679 0.475756 17.306 0.598743 17.1838 0.880714C17.0248 1.24968 16.8429 1.61264 16.6555 2.0056C14.6186 1.69063 12.596 1.70563 10.5592 1.9966C10.366 1.58864 10.1899 1.26168 10.0535 0.91971C9.90866 0.550748 9.67855 0.478756 9.32914 0.556748C7.68434 0.910711 6.08215 1.41166 4.55383 2.14958C4.32372 2.26057 4.09931 2.46755 3.96011 2.68953C2.97437 4.25537 2.16475 5.9202 1.51706 7.67502C0.275645 11.0497 -0.107855 14.5533 0.108042 18.1469C0.130768 18.5399 0.264282 18.8159 0.585288 19.0199C1.01992 19.2958 1.429 19.6168 1.86079 19.8988C3.37776 20.8917 4.98846 21.6626 6.68439 22.2475C6.86336 22.3075 7.03381 22.4005 7.18437 22.1845C7.69287 21.4496 8.14455 20.6817 8.52805 19.8298C7.76673 19.4368 7.05085 19.0648 6.32362 18.6869C6.57361 18.2549 6.83211 18.2489 7.18153 18.4079C9.6473 19.5268 12.2182 20.0157 14.9027 19.7818C16.6895 19.6228 18.3968 19.1578 20.0416 18.4079C20.4876 18.2039 20.4905 18.2129 20.8797 18.6929C20.1467 19.0708 19.4252 19.4428 18.6326 19.8508C19.0758 20.6097 19.4991 21.3146 19.9081 22.0285C20.0644 22.3015 20.2433 22.3495 20.5416 22.2475C22.7091 21.4886 24.7232 20.4207 26.5981 19.0468C26.939 18.7979 27.118 18.5159 27.1094 18.0809C27.081 16.5631 27.1492 15.0393 27.0214 13.5334ZM10.5706 14.7603C9.72401 15.5342 8.54793 15.5312 7.6957 14.7693C6.43441 13.6444 6.41737 11.4066 7.65878 10.2608C8.68998 9.30985 10.224 9.54082 11.0251 10.7617C11.3432 11.2506 11.5052 11.8236 11.5052 12.4805C11.5023 13.3804 11.2268 14.1604 10.5706 14.7603ZM19.7831 14.5353C18.8116 15.6572 17.2293 15.5972 16.3344 14.3913C15.9225 13.8394 15.718 13.2094 15.7351 12.5645C15.7265 11.7006 15.9651 10.9957 16.4964 10.4137C17.4196 9.40284 18.8883 9.42984 19.786 10.4677C20.7405 11.5716 20.7376 13.4344 19.7831 14.5353Z" fill="white"/>
</svg>
