<svg width="25" height="24" viewBox="0 0 25 24" fill="none" xmlns="http://www.w3.org/2000/svg">
<path d="M0.771118 15.8015C0.771118 13.2236 0.771118 10.6485 0.771118 8.07064C0.839605 7.32002 0.891656 6.56666 0.979319 5.81604C1.30806 2.99711 3.25583 0.871268 6.05285 0.337068C6.96236 0.16174 7.89653 0.120648 8.82247 0.0192871C11.4332 0.0192871 14.0467 0.0192871 16.6601 0.0192871C17.3587 0.0877743 18.06 0.142564 18.7559 0.222009C21.6378 0.550748 23.7609 2.49578 24.2978 5.35033C24.4649 6.2434 24.506 7.16113 24.6047 8.0679C24.6047 10.6814 24.6047 13.2948 24.6047 15.9056C24.569 16.3247 24.5197 16.7411 24.5033 17.1603C24.3581 20.7736 22.161 23.2036 18.5997 23.6611C17.8874 23.7515 17.167 23.7871 16.4492 23.8501C13.907 23.8501 11.3647 23.8501 8.82247 23.8501C8.07185 23.7816 7.31575 23.7296 6.56787 23.6419C3.91057 23.3378 1.82034 21.5708 1.18752 18.9765C0.935487 17.9492 0.902614 16.8617 0.771118 15.8015ZM12.6468 18.0479C16.0629 18.0533 18.7942 15.3549 18.7969 11.9717C18.7997 8.5254 16.1095 5.827 12.666 5.82426C9.29914 5.82152 6.58705 8.5254 6.57061 11.9032C6.55144 15.3084 9.25531 18.0424 12.6468 18.0479ZM20.4763 5.56401C20.4708 4.74764 19.8489 4.134 19.0325 4.14222C18.2463 4.1477 17.6272 4.76682 17.619 5.54757C17.6107 6.3475 18.2518 7.00498 19.0408 7.00772C19.838 7.00772 20.479 6.36394 20.4763 5.56401Z" fill="white"/>
<path d="M8.71282 11.9255C8.70186 9.76678 10.5072 7.9642 12.6878 7.96146C14.8493 7.95872 16.6546 9.76952 16.6601 11.9419C16.6628 14.0733 14.863 15.8895 12.7262 15.9087C10.5291 15.9279 8.72378 14.139 8.71282 11.9255Z" fill="white"/>
</svg>
