<svg width="29" height="26" viewBox="0 0 29 26" fill="none" xmlns="http://www.w3.org/2000/svg">
<path d="M9.48413 2.44433C9.48413 2.44433 12.154 6.74663 12.154 10.4539C12.154 14.1612 10.5215 16.5351 9.33459 17.8715H12.8082V20.5383H9.03863C9.03863 20.5383 7.40619 20.5414 7.40619 17.722H0.583577C0.583577 17.722 -0.282492 25.4356 8.01368 25.4356C16.3099 25.4356 20.3442 25.4356 20.3442 25.4356C20.3442 25.4356 22.5405 24.9901 24.0235 21.7283C25.5064 18.4666 28.0267 18.1675 28.0267 18.1675V16.1892L20.7586 18.3139C20.7586 18.3139 19.5716 20.3919 17.6432 20.3919C15.7148 20.3919 15.4189 20.3919 15.4189 20.3919V17.8715H17.6432C17.6432 17.8715 21.2041 14.7562 21.2041 11.6408C21.2041 8.52549 16.6058 4.51915 15.4189 4.22319V1.77765C15.4189 1.07981 14.855 0.51593 14.1572 0.51593C13.4593 0.51593 12.8954 1.07981 12.8954 1.77765V3.63128C12.8954 3.63128 10.076 2.59387 9.48413 2.44433Z" fill="white"/>
<path d="M8.4467 5.2637C8.4467 5.2637 11.7116 11.0427 8.4467 15.1985C5.33135 15.1985 1.77051 15.1985 1.77051 15.1985C1.77051 15.1985 5.47777 10.1579 8.4467 5.2637Z" fill="white"/>
</svg>
