<svg width="26" height="21" viewBox="0 0 26 21" fill="none" xmlns="http://www.w3.org/2000/svg">
<path d="M25.5952 3.04579C25.5952 3.19372 25.5952 3.34166 25.5952 3.48959C24.8062 4.3087 24.0145 5.11958 23.2392 5.95239C23.1461 6.05375 23.1488 6.25647 23.1351 6.41262C23.0557 7.25912 23.0639 8.11932 22.9022 8.94939C20.9435 18.9787 11.2923 23.2687 2.95329 19.8224C2.13144 19.4827 1.39178 18.9403 0.61377 18.4938C0.61377 18.3814 0.61377 18.2719 0.61377 18.1595C0.835668 18.113 1.06304 18.0116 1.2822 18.0253C3.18889 18.1595 4.99969 17.8363 6.69269 16.9295C6.85706 16.8419 7.01047 16.7378 7.24881 16.5953C5.41609 16.0584 4.16962 15.0201 3.49023 13.349C3.22724 12.6997 3.30942 12.5518 4.02169 12.4285C3.89841 12.3354 3.79705 12.2614 3.69843 12.1847C2.4821 11.2149 1.76983 9.96026 1.61916 8.40971C1.52602 7.43993 1.66025 7.35501 2.55881 7.70018C2.62181 7.72484 2.69578 7.72484 2.8218 7.74401C2.71496 7.58786 2.64099 7.4865 2.57524 7.3824C1.48493 5.68118 1.3233 3.90325 2.1561 2.0541C2.49854 1.29252 2.72865 1.2706 3.27929 1.9089C5.2846 4.22103 7.79397 5.68392 10.769 6.35783C11.2978 6.47837 11.8402 6.53042 12.3853 6.61535C12.4018 6.47563 12.4127 6.42084 12.41 6.36879C12.3059 4.01283 13.2565 2.20203 15.355 1.14459C17.4315 0.0981032 19.4313 0.399447 21.264 1.84316C21.4174 1.96369 21.7188 2.02944 21.8996 1.96643C22.6475 1.70618 23.368 1.37744 24.1076 1.09802C24.3103 1.02131 24.5459 1.03775 24.7678 1.01035C24.7788 1.24595 24.8665 1.51716 24.7843 1.7144C24.5596 2.24038 24.261 2.73623 23.9569 3.31152C24.2309 3.2129 24.4446 3.09236 24.6747 3.06223C24.9733 3.01292 25.2856 3.04305 25.5952 3.04579Z" fill="white"/>
</svg>
